<svg xmlns="http://www.w3.org/2000/svg" xmlns:xlink="http://www.w3.org/1999/xlink" width="1280" zoomAndPan="magnify" viewBox="0 0 960 540.000001" height="720" preserveAspectRatio="xMidYMid meet" version="1.0"><defs><clipPath id="d27b243861"><path d="M 0.886719 0 L 959.113281 0 L 959.113281 539 L 0.886719 539 Z M 0.886719 0 " clip-rule="nonzero"/></clipPath><clipPath id="89b20e97dd"><path d="M 0.886719 0 L 239 0 L 239 506 L 0.886719 506 Z M 0.886719 0 " clip-rule="nonzero"/></clipPath></defs><g clip-path="url(#d27b243861)"><path fill="#ffffff" d="M 0.886719 0 L 959.113281 0 L 959.113281 546.488281 L 0.886719 546.488281 Z M 0.886719 0 " fill-opacity="1" fill-rule="nonzero"/><path fill="#ffffff" d="M 0.886719 0 L 959.113281 0 L 959.113281 539 L 0.886719 539 Z M 0.886719 0 " fill-opacity="1" fill-rule="nonzero"/><path fill="#f2eddc" d="M 0.886719 0 L 959.113281 0 L 959.113281 539 L 0.886719 539 Z M 0.886719 0 " fill-opacity="1" fill-rule="nonzero"/></g><g clip-path="url(#89b20e97dd)"><path fill="#093a3e" d="M -195.46875 98.75 C -193.25 114.445312 -187.109375 130.507812 -191.734375 145.671875 C -197.515625 164.617188 -218.03125 175.292969 -226.898438 193.007812 C -233.351562 205.902344 -232.714844 222.085938 -225.261719 234.433594 C -221.765625 240.234375 -216.851562 245.296875 -214.753906 251.738281 C -209.828125 266.867188 -222.46875 282.359375 -236.527344 289.804688 C -250.585938 297.25 -266.957031 300.40625 -279.566406 310.101562 C -307.519531 331.605469 -304.226562 377.851562 -281.132812 404.5 C -258.042969 431.144531 -221.992188 442.289062 -187.363281 448.96875 C -161.484375 453.957031 -133.800781 457.800781 -113.609375 474.730469 C -106.691406 480.53125 -100.949219 487.671875 -93.75 493.113281 C -66.117188 513.984375 -26.324219 504.285156 4.574219 488.648438 C 35.46875 473.011719 65.84375 451.789062 100.476562 451.699219 C 115.125 451.664062 129.5625 455.511719 144.207031 455.644531 C 186.769531 456.019531 225.789062 422.101562 235.730469 380.726562 C 245.671875 339.351562 228.59375 293.902344 196.886719 265.515625 C 180.292969 250.664062 157.660156 234.292969 162.136719 212.484375 C 163.941406 203.671875 170.105469 196.523438 175.167969 189.085938 C 185.285156 174.222656 191.570312 156.769531 193.253906 138.871094 C 193.761719 133.492188 193.839844 127.917969 191.9375 122.867188 C 186.566406 108.566406 168.941406 104.410156 154.699219 98.871094 C 123.652344 86.800781 99.519531 58.363281 92.667969 25.769531 C 91.53125 20.359375 90.640625 14.460938 86.710938 10.574219 C 83.578125 7.488281 79.070312 6.277344 74.71875 5.636719 C 43.167969 0.996094 9.085938 19.679688 -19.773438 6.105469 C -34.667969 -0.902344 -46.089844 -15.910156 -62.445312 -17.789062 C -76.132812 -19.359375 -88.753906 -11.167969 -100.796875 -4.488281 C -100.796875 -4.480469 -100.800781 -4.480469 -100.800781 -4.480469 C -128.867188 11.097656 -150.070312 -3.472656 -173.222656 24.132812 C -190.347656 44.554688 -199.226562 72.199219 -195.46875 98.75 " fill-opacity="1" fill-rule="nonzero"/></g></svg>