<svg xmlns="http://www.w3.org/2000/svg" xmlns:xlink="http://www.w3.org/1999/xlink" width="1280" zoomAndPan="magnify" viewBox="0 0 960 540.000001" height="720" preserveAspectRatio="xMidYMid meet" version="1.0"><defs><clipPath id="a2252cd3b3"><path d="M 0.886719 0 L 959.113281 0 L 959.113281 539 L 0.886719 539 Z M 0.886719 0 " clip-rule="nonzero"/></clipPath><clipPath id="b41cac9773"><path d="M 0.886719 270 L 580 270 L 580 539 L 0.886719 539 Z M 0.886719 270 " clip-rule="nonzero"/></clipPath><clipPath id="90a0cc337a"><path d="M 443 0 L 959.113281 0 L 959.113281 315 L 443 315 Z M 443 0 " clip-rule="nonzero"/></clipPath><clipPath id="7ecca79629"><path d="M 584.3125 -211.9375 L 1059.878906 55.769531 L 853.136719 423.046875 L 377.566406 155.339844 Z M 584.3125 -211.9375 " clip-rule="nonzero"/></clipPath><clipPath id="7528993813"><path d="M 587.277344 -217.203125 L 1150.914062 100.078125 L 940.863281 473.226562 L 377.226562 155.945312 Z M 587.277344 -217.203125 " clip-rule="nonzero"/></clipPath><clipPath id="bebf6edf2f"><path d="M 0.886719 0 L 262 0 L 262 255 L 0.886719 255 Z M 0.886719 0 " clip-rule="nonzero"/></clipPath><clipPath id="34598e6240"><path d="M 114.328125 350.65625 L -125.40625 149.542969 L 106.5 -126.894531 L 346.234375 74.21875 Z M 114.328125 350.65625 " clip-rule="nonzero"/></clipPath><clipPath id="5347f61dc6"><path d="M 114.328125 350.65625 L -178.742188 104.796875 L 67.117188 -188.273438 L 360.1875 57.585938 Z M 114.328125 350.65625 " clip-rule="nonzero"/></clipPath></defs><g clip-path="url(#a2252cd3b3)"><path fill="#ffffff" d="M 0.886719 0 L 959.113281 0 L 959.113281 546.488281 L 0.886719 546.488281 Z M 0.886719 0 " fill-opacity="1" fill-rule="nonzero"/><path fill="#ffffff" d="M 0.886719 0 L 959.113281 0 L 959.113281 539 L 0.886719 539 Z M 0.886719 0 " fill-opacity="1" fill-rule="nonzero"/><path fill="#093a3e" d="M 0.886719 0 L 959.113281 0 L 959.113281 539 L 0.886719 539 Z M 0.886719 0 " fill-opacity="1" fill-rule="nonzero"/></g><g clip-path="url(#b41cac9773)"><path fill="#052528" d="M -73.789062 501.402344 C -59.261719 501.226562 -44.738281 502.289062 -30.390625 504.589844 C -8.246094 507.957031 14.25 507.957031 36.394531 504.769531 C 56.765625 501.578125 76.074219 495.027344 95.027344 487.230469 C 108.847656 481.5625 117.878906 471.113281 123.902344 458.183594 C 131.519531 441.710938 138.429688 425.058594 145.160156 408.234375 C 151.359375 393 156.144531 377.234375 164.46875 363.066406 C 175.804688 343.050781 192.105469 326.222656 211.765625 314.179688 C 226.292969 305.5 240.464844 296.464844 254.988281 287.609375 C 265.441406 281.230469 277.132812 277.6875 289 275.210938 C 318.054688 269.1875 346.75 269.1875 375.625 277.335938 C 409.636719 286.898438 442.761719 299.300781 474.824219 314.53125 C 498.5625 325.867188 518.578125 342.519531 537.179688 360.941406 C 547.453125 370.859375 556.488281 382.019531 563.929688 394.238281 C 572.253906 408.054688 577.390625 423.644531 578.453125 439.761719 C 579.695312 457.121094 580.226562 474.300781 575.089844 491.128906 C 565.167969 523.898438 546.570312 550.289062 515.566406 565.878906 C 503.875 571.898438 490.945312 575.972656 478.191406 579.691406 C 450.023438 588.019531 423.453125 600.773438 399.363281 617.597656 C 381.117188 630.175781 366.058594 646.292969 351.355469 662.945312 C 335.414062 681.1875 320 699.785156 303.171875 717.144531 C 278.902344 742.121094 252.332031 764.617188 221.6875 781.441406 C 204.148438 791.007812 186.082031 798.976562 166.417969 802.34375 C 132.230469 808.1875 100.519531 802.34375 72.886719 780.378906 C 57.296875 768.15625 42.417969 755.226562 27.183594 742.828125 C 13.542969 731.492188 -0.0976562 720.332031 -16.21875 712.539062 C -34.285156 703.328125 -54.480469 699.078125 -74.675781 699.964844 C -89.910156 700.847656 -105.144531 702.441406 -120.199219 703.683594 C -137.027344 704.921875 -153.859375 704.921875 -170.507812 701.203125 C -200.09375 694.828125 -217.808594 676.050781 -226.132812 647.710938 C -233.574219 621.671875 -229.851562 596.34375 -220.109375 571.722656 C -215.328125 559.675781 -208.59375 548.519531 -200.269531 538.777344 C -188.753906 525.492188 -173.875 517.875 -157.402344 512.5625 C -139.15625 506.714844 -120.378906 504.414062 -101.421875 503.171875 Z M -73.789062 501.402344 " fill-opacity="1" fill-rule="nonzero"/></g><g clip-path="url(#90a0cc337a)"><g clip-path="url(#7ecca79629)"><g clip-path="url(#7528993813)"><path fill="#052528" d="M 607.59375 5.9375 C 617.714844 11.472656 627.351562 17.867188 636.382812 25.050781 C 650.394531 36.007812 665.964844 44.769531 682.53125 51.1875 C 697.871094 56.917969 713.785156 59.902344 729.9375 61.890625 C 741.710938 63.347656 752.035156 59.632812 761.242188 53.027344 C 772.929688 44.589844 784.199219 35.753906 795.417969 26.726562 C 805.644531 18.597656 815.097656 9.546875 826.378906 2.980469 C 842.027344 -6.460938 859.859375 -11.761719 878.160156 -12.441406 C 891.597656 -12.792969 904.921875 -13.523438 918.425781 -14 C 928.144531 -14.339844 937.617188 -12.238281 946.796875 -9.332031 C 969.246094 -2.1875 989.105469 8.992188 1005.910156 25.882812 C 1025.71875 45.753906 1043.8125 67.238281 1060.0625 90.277344 C 1072.070312 107.371094 1079.433594 126.695312 1085.125 146.691406 C 1088.371094 157.5625 1090.273438 168.808594 1090.660156 180.167969 C 1091.039062 192.972656 1088.519531 205.765625 1082.972656 217.339844 C 1077.066406 229.839844 1070.738281 241.941406 1060.625 251.589844 C 1040.988281 270.410156 1017.832031 281.4375 990.304688 280.152344 C 979.867188 279.765625 969.332031 277.550781 959.058594 275.15625 C 936.320312 269.949219 912.964844 268.425781 889.734375 270.691406 C 872.207031 272.289062 855.507812 277.582031 838.84375 283.382812 C 820.699219 289.804688 802.789062 296.675781 784.378906 302.136719 C 757.851562 309.972656 730.695312 315.195312 702.933594 314.90625 C 687.070312 314.699219 671.457031 313.179688 656.539062 307.847656 C 630.605469 298.578125 610.9375 282.179688 600.375 256.207031 C 594.351562 241.675781 589.09375 226.925781 583.382812 212.410156 C 578.359375 199.246094 573.269531 186.207031 565.152344 174.535156 C 556.238281 161.117188 543.921875 150.308594 529.601562 143.054688 C 518.714844 137.734375 507.550781 132.902344 496.648438 127.898438 C 484.519531 122.199219 472.871094 115.644531 462.800781 106.582031 C 444.8125 90.644531 439.871094 70.746094 445.152344 47.882812 C 450.152344 26.957031 462.597656 10.871094 478.933594 -2.378906 C 486.9375 -8.851562 495.945312 -13.957031 505.503906 -17.457031 C 518.648438 -22.167969 531.914062 -21.644531 545.386719 -18.90625 C 560.289062 -15.847656 574.179688 -10.125 587.78125 -3.601562 Z M 607.59375 5.9375 " fill-opacity="1" fill-rule="nonzero"/></g></g></g><g clip-path="url(#bebf6edf2f)"><g clip-path="url(#34598e6240)"><g clip-path="url(#5347f61dc6)"><path fill="#052528" d="M 3.847656 -24.644531 C 69.265625 -37.871094 51.808594 -159.074219 133.105469 -117.535156 C 214.402344 -76 294.792969 77.921875 248.316406 138.203125 C 201.84375 198.480469 99.101562 49.773438 57.625 74.097656 C 16.136719 98.316406 125.761719 161.320312 100.449219 221.375 C 82.324219 264.289062 27.394531 259.652344 -4.746094 238.082031 C -161.820312 132.476562 -75.398438 -8.632812 3.847656 -24.644531 Z M 3.847656 -24.644531 " fill-opacity="1" fill-rule="nonzero"/></g></g></g></svg>